<svg xmlns="http://www.w3.org/2000/svg" shape-rendering="geometricPrecision" text-rendering="geometricPrecision" image-rendering="optimizeQuality" fill-rule="evenodd" clip-rule="evenodd" viewBox="0 0 512 512"><circle fill="#FBD433" transform="matrix(2.6439 -.70843 .70843 2.6439 256 256)" r="93.504"/><path fill-rule="nonzero" d="M311.614 167.208c-8.713 1.067-16.645-5.131-17.712-13.845-1.066-8.713 5.131-16.645 13.845-17.712 24.12-3.036 48.201.14 70.414 8.376 22.714 8.421 43.617 22.176 60.713 40.011 6.095 6.337 5.901 16.418-.436 22.514-6.338 6.096-16.419 5.901-22.515-.436-13.713-14.306-30.536-25.359-48.863-32.154-17.694-6.56-36.669-9.118-55.446-6.754zM146.707 359.673c-9.444-14.665-3.044-27.062 12.626-24.418 64.465 17.411 130.028 17.762 196.742 0 10.969-.905 18.587 12.276 9.823 24.418-57.576 65.374-173.661 60.462-219.191 0zM295.93 236.946c-4.687 6.546-8.106 12.348-9.362 16.866-3.147 11.338 7.751 11.19 15.425 6.84 30.38-17.226 72.383-14.695 103.189.004 17.31 8.258 18.633-4.058 8.774-16.619-38.463-49.008-75.435-50.52-118.026-7.091zm-199.097-64.48c-4.201 6.752-13.08 8.821-19.832 4.621-6.751-4.2-8.82-13.08-4.62-19.831 10.745-17.197 30.454-33.148 51.336-45.051 23.625-13.465 49.661-22.103 66.441-21.711 7.932.155 14.239 6.715 14.083 14.648-.155 7.933-6.715 14.239-14.648 14.084-11.904-.279-32.181 6.879-51.679 17.992-17.164 9.783-33.029 22.363-41.081 35.248zm70.322 15.866c21.402 0 38.751 22.179 38.751 49.537s-17.349 49.537-38.751 49.537c-21.402 0-38.751-22.179-38.751-49.537s17.349-49.537 38.751-49.537z"/></svg>